<svg xmlns="http://www.w3.org/2000/svg" width="123.797" height="36.271" viewBox="0 0 123.797 36.271">
  <g transform="translate(-253.122 -138.957)">
    <g transform="translate(253.122 138.957)">
      <path d="M320.252,210.412l-2.514,1.415c-.5.283-1,.573-1.508.845a.318.318,0,0,0-.2.328q.007,5.355,0,10.71c0,.466,0,.933,0,1.4a.258.258,0,0,0,.142.263q3.381,2.033,6.755,4.078a.236.236,0,0,0,.28,0c1.309-.761,2.622-1.515,3.932-2.276q3.608-2.1,7.213-4.2c.175-.1.177-.1.177.11,0,1.574,0,3.149,0,4.723a.263.263,0,0,1-.148.261q-3.3,1.96-6.594,3.926-2.255,1.344-4.509,2.691a.324.324,0,0,1-.384,0q-4.374-2.562-8.753-5.116c-.8-.466-1.6-.935-2.4-1.4a.272.272,0,0,1-.157-.273q.005-8.669,0-17.338a.275.275,0,0,1,.161-.271q2-1.192,4-2.4a.289.289,0,0,1,.348,0c1.325.8,2.655,1.59,3.984,2.385A.352.352,0,0,1,320.252,210.412Z" transform="translate(-303.65 -198.476)" fill="#1c8cf3" />
      <path d="M377.562,141.618c.17-.107.333-.211.5-.312q1.865-1.151,3.728-2.3a.212.212,0,0,1,.26,0c.569.353,1.14.705,1.722,1.032,1.343.755,2.658,1.555,3.992,2.323.664.382,1.309.8,1.977,1.171.925.519,1.83,1.073,2.753,1.6a.287.287,0,0,1,.166.29q-.006,4.51,0,9.02a.287.287,0,0,1-.171.286c-.83.48-1.655.968-2.481,1.454l-5.565,3.269q-5.467,3.212-10.933,6.426a.269.269,0,0,1-.313,0q-1.626-.947-3.258-1.881a.272.272,0,0,1-.155-.276q.006-2.42,0-4.841c0-.232,0-.233.213-.113.732.418,1.458.846,2.2,1.25q.517.282,1.033.569a.22.22,0,0,0,.249,0q3.852-2.244,7.707-4.483c.884-.514,1.773-1.021,2.658-1.533q2.151-1.245,4.3-2.491a.273.273,0,0,0,.16-.272q-.009-1.827,0-3.655a.247.247,0,0,0-.134-.249q-2.354-1.381-4.7-2.772-2.914-1.722-5.827-3.446C377.618,141.663,377.6,141.645,377.562,141.618Z" transform="translate(-353.929 -138.957)" fill="#1c8cf3" />
      <path d="M283.976,150.786l-2.093,1.279c-.685.419-1.373.833-2.054,1.26a.3.3,0,0,1-.365,0q-3.895-2.283-7.794-4.559-3.072-1.8-6.143-3.595a.307.307,0,0,0-.366,0c-1.19.723-2.386,1.437-3.58,2.154q-1.865,1.119-3.732,2.235a.288.288,0,0,0-.165.287q.008,4,0,8.009v.206c-.082.014-.124-.033-.173-.061q-2.118-1.227-4.236-2.453a.273.273,0,0,1-.157-.273q.006-4.014,0-8.029a.287.287,0,0,1,.167-.288q3.7-2.154,7.4-4.316,2.245-1.31,4.489-2.623a.283.283,0,0,1,.333,0c.6.358,1.207.707,1.812,1.059l3.591,2.09,4.006,2.333,8.914,5.186C283.872,150.717,283.909,150.743,283.976,150.786Z" transform="translate(-253.122 -139.833)" fill="#1c8cf3" />
    </g>
    <g transform="translate(299.227 152.292)">
      <path d="M727.565,245.61,730.9,250.5a.2.2,0,0,1-.158.031c-.836,0-1.673,0-2.51,0a.246.246,0,0,1-.238-.118q-2.144-3.156-4.3-6.305c-.014-.021-.026-.044-.04-.068.065-.057.139-.028.2-.029.726-.012,1.453.031,2.178-.023a2.277,2.277,0,0,0,1.827-.916,2.586,2.586,0,0,0,.43-1.546,2.29,2.29,0,0,0-.664-1.745,2.537,2.537,0,0,0-1.4-.61,4.631,4.631,0,0,0-.736-.047c-1.057,0-2.114,0-3.171,0-.162,0-.2.039-.2.2q.008,5.491.009,10.982c0,.189-.046.235-.233.232-.707-.012-1.414-.008-2.12,0-.143,0-.2-.023-.2-.186q.008-6.531,0-13.062c0-.116,0-.187.158-.186,2.2.008,4.4-.011,6.594.019a5.048,5.048,0,0,1,2.863.855,3.741,3.741,0,0,1,1.654,2.9,4.305,4.305,0,0,1-.844,3.218,4.733,4.733,0,0,1-2.123,1.413C727.787,245.536,727.688,245.567,727.565,245.61Z" transform="translate(-702.302 -237.099)" fill="#fff" />
      <path d="M1068.145,239.727l-.6,1.473q-1.505,3.677-3.014,7.354c-.072.174-.035.194.135.193,1-.007,2,0,3-.007.15,0,.2.033.2.191-.01.538-.006,1.076,0,1.613,0,.107-.024.146-.139.146q-3.24-.005-6.479,0a.446.446,0,0,1-.069-.014c.224-.527.445-1.05.668-1.571q2.505-5.864,5.009-11.729a.245.245,0,0,1,.267-.181q1.08.013,2.16,0a.244.244,0,0,1,.266.183q2.784,6.556,5.577,13.109c.087.2.087.2-.133.2-.726,0-1.453,0-2.179,0a.226.226,0,0,1-.25-.171q-2.146-5.278-4.3-10.552C1068.219,239.9,1068.188,239.826,1068.145,239.727Z" transform="translate(-997.473 -237.178)" fill="#fff" />
      <path d="M849.821,239.729l-3.689,9.012h.222c1,0,2,0,3,0,.149,0,.182.04.18.183-.009.538-.007,1.076,0,1.613,0,.114-.02.155-.147.155q-3.19-.007-6.381,0c-.2,0-.131-.086-.089-.184l2.733-6.4q1.438-3.369,2.875-6.739a.244.244,0,0,1,.268-.179q1.08.014,2.159,0a.243.243,0,0,1,.266.182Q854,243.936,856.8,250.5c.06.14.068.2-.119.194-.739-.01-1.479-.008-2.218,0a.214.214,0,0,1-.234-.167q-2.154-5.3-4.316-10.59C849.889,239.873,849.86,239.816,849.821,239.729Z" transform="translate(-808.836 -237.176)" fill="#fff" />
      <path d="M954.936,237.1h.752c.61,0,1.219,0,1.829,0a.207.207,0,0,1,.234.165q1.872,5.062,3.754,10.122c.024.064.025.142.1.188q.629-1.694,1.255-3.38,1.287-3.471,2.571-6.943a.2.2,0,0,1,.223-.151q1.168.009,2.335,0c.164,0,.2.027.131.188q-2.076,5.15-4.144,10.3c-.383.953-.768,1.906-1.146,2.862a.238.238,0,0,1-.263.185c-.681-.01-1.362-.008-2.043,0a.227.227,0,0,1-.253-.168q-1.924-4.8-3.857-9.605-.715-1.78-1.429-3.561A.335.335,0,0,1,954.936,237.1Z" transform="translate(-905.676 -237.099)" fill="#fff" />
      <path d="M599.3,244.864q0,2.741,0,5.481c0,.144-.026.2-.186.195q-1.08-.015-2.159,0c-.168,0-.2-.048-.2-.2q.007-5.462.008-10.924c0-.185-.04-.236-.231-.235-1.3.01-2.594,0-3.891.01-.185,0-.221-.056-.218-.226.01-.564.007-1.127,0-1.691,0-.123.027-.165.159-.165q5.447.005,10.894,0c.133,0,.16.043.159.165-.006.583-.008,1.166,0,1.749,0,.147-.053.165-.179.165-1.323,0-2.646,0-3.969-.007-.168,0-.2.048-.2.2C599.3,241.21,599.3,243.037,599.3,244.864Z" transform="translate(-592.427 -237.104)" fill="#fff" />
    </g>
  </g>
</svg>