<svg width="30" height="30" viewBox="0 0 30 30" fill="none" xmlns="http://www.w3.org/2000/svg">
  <circle cx="15" cy="15" r="14.5" fill="#1C8CF3" stroke="white" />
  <path d="M13.4242 13.1495C13.0457 13.3624 12.6721 13.573 12.2985 13.7829C12.0734 13.9095 11.8507 14.0397 11.6231 14.1614C11.5574 14.1967 11.5355 14.235 11.5355 14.3086C11.5379 15.9071 11.5373 17.5061 11.5373 19.1046C11.5373 19.3133 11.5392 19.5226 11.5361 19.7313C11.5355 19.7867 11.5495 19.8189 11.5994 19.8487C12.6088 20.4554 13.6171 21.0645 14.6241 21.6748C14.6703 21.7028 14.7032 21.7034 14.7494 21.6766C15.3354 21.3359 15.9238 20.9982 16.5098 20.6574C17.5868 20.0307 18.6631 19.4027 19.7395 18.7754C19.818 18.7298 19.8186 18.7304 19.8192 18.8247C19.8192 19.5299 19.8186 20.2345 19.8204 20.9397C19.8204 20.9963 19.8028 21.028 19.7541 21.0566C18.7696 21.6419 17.7857 22.2285 16.8018 22.8144C16.1282 23.2154 15.4547 23.6158 14.7829 24.0192C14.719 24.0575 14.674 24.0551 14.6113 24.0186C13.3055 23.2538 11.9985 22.4907 10.6922 21.7277C10.3344 21.519 9.97782 21.3091 9.61882 21.1028C9.56649 21.073 9.54823 21.0401 9.54884 20.9805C9.55067 18.3927 9.55067 15.8042 9.54884 13.2164C9.54884 13.155 9.57075 13.1245 9.62064 13.0947C10.2188 12.7388 10.8157 12.3816 11.4114 12.0214C11.4686 11.9867 11.5093 11.9867 11.5671 12.0214C12.1604 12.3792 12.7561 12.7333 13.3512 13.0892C13.3743 13.1045 13.4041 13.113 13.4242 13.1495Z" fill="white" />
  <path d="M16.572 8.99671C16.6481 8.94864 16.7211 8.90239 16.7947 8.85676C17.3515 8.51297 17.9082 8.1704 18.4644 7.8254C18.507 7.79923 18.5374 7.7968 18.5806 7.82418C18.8349 7.98238 19.0911 8.13998 19.3521 8.28662C19.9533 8.62432 20.5423 8.98271 21.1398 9.32711C21.4367 9.49809 21.7258 9.68367 22.0251 9.85161C22.4395 10.084 22.8447 10.3323 23.2579 10.5666C23.3133 10.5976 23.3321 10.6335 23.3321 10.6962C23.3303 12.0427 23.3303 13.3893 23.3321 14.7352C23.3321 14.7997 23.3096 14.8319 23.2555 14.863C22.8837 15.0778 22.5143 15.2962 22.1444 15.514C21.3138 16.002 20.4827 16.49 19.6521 16.978C18.0202 17.937 16.3876 18.8953 14.7563 19.8555C14.7052 19.8859 14.6675 19.8865 14.6164 19.8567C14.1308 19.5744 13.6447 19.2933 13.1573 19.0146C13.1043 18.9842 13.0873 18.9501 13.0879 18.8911C13.0897 18.1688 13.0891 17.4459 13.0891 16.7237C13.0891 16.6196 13.0897 16.619 13.184 16.6732C13.512 16.86 13.8369 17.0516 14.1686 17.233C14.3231 17.3176 14.4777 17.4015 14.631 17.4873C14.6724 17.5104 14.7028 17.5092 14.7423 17.4861C15.8924 16.8162 17.043 16.1469 18.1936 15.4781C18.5897 15.2481 18.9876 15.0212 19.3838 14.7918C20.0257 14.42 20.6676 14.047 21.3102 13.6765C21.3607 13.6473 21.382 13.6162 21.382 13.5548C21.3789 13.009 21.3795 12.4638 21.3814 11.918C21.3814 11.8663 21.3686 11.8346 21.3211 11.8066C20.6183 11.3941 19.9168 10.9797 19.2158 10.5653C18.3457 10.0512 17.4762 9.53642 16.6067 9.02226C16.597 9.01618 16.5884 9.00827 16.572 8.99671Z" fill="white" />
  <path d="M19.8068 12.7095C19.488 12.9042 19.1789 13.0935 18.8697 13.2821C18.5631 13.4695 18.2546 13.6551 17.9503 13.8461C17.8895 13.8845 17.8463 13.8808 17.7867 13.8461C16.6239 13.1646 15.4599 12.485 14.2965 11.8047C13.3795 11.2686 12.4619 10.7332 11.5456 10.1947C11.4847 10.1588 11.4421 10.1594 11.3819 10.1959C10.8489 10.5196 10.3134 10.8397 9.77858 11.1603C9.22183 11.4944 8.66568 11.8291 8.10771 12.1613C8.05417 12.1935 8.03348 12.2264 8.03348 12.2897C8.03592 13.4853 8.03531 14.681 8.03531 15.876C8.03531 15.907 8.03531 15.9381 8.03531 15.9685C7.99819 15.9746 7.97933 15.9539 7.95803 15.9411C7.32583 15.5748 6.69424 15.2073 6.06082 14.8422C6.0091 14.8136 5.99023 14.7814 5.99023 14.7211C5.99206 13.5224 5.99206 12.3243 5.99023 11.1257C5.99023 11.0624 6.01031 11.0289 6.06508 10.9967C7.17006 10.3541 8.27444 9.70914 9.37881 9.06416C10.0487 8.67352 10.7199 8.28349 11.3886 7.88981C11.4446 7.85695 11.4841 7.85938 11.5377 7.89103C11.8066 8.05105 12.078 8.20743 12.3488 8.36502C12.8848 8.67717 13.4209 8.98871 13.957 9.30085C14.5551 9.6489 15.1526 9.99755 15.7507 10.3456C17.0815 11.1196 18.4122 11.8935 19.7423 12.6675C19.7599 12.6785 19.7764 12.69 19.8068 12.7095Z" fill="white" />
</svg>