<svg width="32" height="32" viewBox="0 0 32 32" fill="none" xmlns="http://www.w3.org/2000/svg">
  <path d="M16 31C24.2843 31 31 24.2843 31 16C31 7.71573 24.2843 1 16 1C7.71573 1 1 7.71573 1 16C1 24.2843 7.71573 31 16 31Z" fill="#1C8CF3" stroke="#F1F1F2" stroke-miterlimit="10" />
  <path d="M20.7766 19.5098C20.5558 19.6337 20.338 19.7566 20.1202 19.8794C19.9893 19.9534 19.8594 20.0293 19.7266 20.1002C19.6886 20.1202 19.6756 20.1432 19.6756 20.1862C19.6766 21.1184 19.6766 22.0505 19.6766 22.9837C19.6766 23.1056 19.6776 23.2275 19.6756 23.3494C19.6756 23.3814 19.6836 23.4004 19.7126 23.4183C20.3011 23.772 20.8895 24.1277 21.477 24.4834C21.504 24.4994 21.523 24.5004 21.55 24.4844C21.8917 24.2856 22.2354 24.0888 22.5771 23.8899C23.2055 23.5242 23.833 23.1586 24.4614 22.7919C24.5074 22.7649 24.5074 22.7659 24.5074 22.8209C24.5074 23.2325 24.5074 23.6431 24.5084 24.0548C24.5084 24.0878 24.4984 24.1057 24.4694 24.1227C23.8949 24.4644 23.3214 24.8061 22.7469 25.1478C22.3543 25.3816 21.9606 25.6154 21.5689 25.8502C21.532 25.8722 21.505 25.8712 21.469 25.8502C20.7077 25.4036 19.9454 24.959 19.183 24.5144C18.9742 24.3925 18.7664 24.2706 18.5566 24.1497C18.5256 24.1317 18.5156 24.1127 18.5156 24.0788C18.5166 23.2145 18.5166 22.3513 18.5166 21.487C18.5166 20.8416 18.5166 20.1962 18.5156 19.5507C18.5156 19.5148 18.5286 19.4978 18.5576 19.4798C18.9063 19.272 19.255 19.0642 19.6017 18.8543C19.6356 18.8344 19.6586 18.8344 19.6926 18.8543C20.0383 19.0632 20.386 19.27 20.7327 19.4768C20.7477 19.4838 20.7647 19.4888 20.7766 19.5098Z" fill="white" />
  <path d="M22.6131 17.0879C22.658 17.0599 22.7 17.0329 22.7429 17.0059C23.0677 16.8051 23.3924 16.6053 23.7171 16.4045C23.7421 16.3895 23.76 16.3875 23.785 16.4035C23.9339 16.4954 24.0828 16.5873 24.2346 16.6732C24.5853 16.8701 24.929 17.0789 25.2777 17.2797C25.4516 17.3796 25.6194 17.4875 25.7943 17.5854C26.036 17.7213 26.2718 17.8662 26.5136 18.0021C26.5456 18.0201 26.5566 18.041 26.5566 18.078C26.5556 18.8633 26.5556 19.6486 26.5566 20.4339C26.5566 20.4719 26.5436 20.4899 26.5116 20.5089C26.2948 20.6338 26.079 20.7617 25.8632 20.8885C25.3786 21.1733 24.894 21.458 24.4095 21.7428C23.4573 22.3023 22.5051 22.8608 21.554 23.4213C21.524 23.4393 21.502 23.4393 21.4721 23.4223C21.1893 23.2575 20.9055 23.0936 20.6208 22.9308C20.5898 22.9128 20.5798 22.8928 20.5798 22.8588C20.5808 22.4372 20.5808 22.0156 20.5808 21.5949C20.5808 21.534 20.5808 21.534 20.6368 21.5659C20.8276 21.6749 21.0174 21.7868 21.2113 21.8927C21.3012 21.9416 21.3911 21.9916 21.481 22.0415C21.505 22.0545 21.523 22.0545 21.546 22.0405C22.2164 21.6499 22.8878 21.2592 23.5592 20.8696C23.79 20.7357 24.0218 20.6028 24.2536 20.4689C24.6283 20.2521 25.002 20.0343 25.3776 19.8185C25.4066 19.8015 25.4196 19.7835 25.4196 19.7475C25.4176 19.4298 25.4186 19.1111 25.4196 18.7934C25.4196 18.7634 25.4126 18.7444 25.3846 18.7284C24.975 18.4876 24.5653 18.2459 24.1567 18.0041C23.6491 17.7043 23.1426 17.4036 22.635 17.1039C22.627 17.0989 22.622 17.0949 22.6131 17.0879Z" fill="white" />
  <path d="M24.4994 19.253C24.3135 19.3669 24.1327 19.4768 23.9528 19.5867C23.774 19.6956 23.5942 19.8045 23.4163 19.9154C23.3813 19.9374 23.3554 19.9354 23.3214 19.9154C22.643 19.5178 21.9646 19.1211 21.2852 18.7245C20.7506 18.4118 20.2151 18.099 19.6806 17.7853C19.6456 17.7643 19.6206 17.7643 19.5847 17.7863C19.2739 17.9751 18.9612 18.162 18.6495 18.3488C18.3248 18.5436 18.0001 18.7395 17.6743 18.9323C17.6434 18.9513 17.6314 18.9703 17.6314 19.0072C17.6324 19.7046 17.6324 20.402 17.6324 21.0994C17.6324 21.1174 17.6324 21.1354 17.6324 21.1533C17.6104 21.1573 17.5994 21.1444 17.5874 21.1374C17.2187 20.9236 16.8501 20.7097 16.4814 20.4969C16.4514 20.4799 16.4404 20.461 16.4404 20.426C16.4414 19.7266 16.4414 19.0282 16.4404 18.3288C16.4404 18.2919 16.4524 18.2719 16.4844 18.2539C17.1288 17.8792 17.7733 17.5026 18.4167 17.1269C18.8074 16.8991 19.199 16.6713 19.5897 16.4415C19.6226 16.4225 19.6456 16.4235 19.6766 16.4425C19.8335 16.5354 19.9923 16.6273 20.1502 16.7192C20.4629 16.9011 20.7756 17.0829 21.0884 17.2648C21.437 17.4676 21.7857 17.6714 22.1344 17.8742C22.9108 18.3258 23.6871 18.7774 24.4624 19.229C24.4724 19.235 24.4814 19.242 24.4994 19.253Z" fill="white" />
  <path d="M8.16599 10.8186L6.80884 9.46143L5.45169 10.8186L6.80884 12.1757L8.16599 10.8186Z" fill="white" />
  <path d="M12.5451 10.8183L11.188 9.46118L9.83084 10.8183L11.188 12.1755L12.5451 10.8183Z" fill="white" />
  <path d="M16.9253 10.8188L15.5681 9.46167L14.211 10.8188L15.5681 12.176L16.9253 10.8188Z" fill="white" />
  <path d="M14.629 13.0165L11.1881 16.4575L7.74707 13.0165L9.10488 11.6587L11.1881 13.7429L13.2712 11.6587L14.629 13.0165Z" fill="white" />
  <path d="M14.629 8.60041L11.1881 5.15942L7.74707 8.60041L9.10488 9.95722L11.1881 7.87404L13.2712 9.95722L14.629 8.60041Z" fill="white" />
  <path d="M26.5962 5.12842L5.40356 26.5963" stroke="white" stroke-miterlimit="10" />
</svg>
  